<svg width="24" height="25" viewBox="0 0 24 25" fill="none" xmlns="http://www.w3.org/2000/svg">
<path opacity="0.2" d="M8.67187 12.1993C9.44364 13.7931 10.7324 15.0785 12.3281 15.8462C12.4458 15.9019 12.576 15.926 12.7059 15.9162C12.8358 15.9063 12.9608 15.8628 13.0687 15.7899L15.4125 14.2243C15.516 14.1541 15.6357 14.1112 15.7603 14.0997C15.8849 14.0883 16.0104 14.1085 16.125 14.1587L20.5125 16.043C20.6625 16.1055 20.7877 16.2154 20.869 16.356C20.9504 16.4966 20.9832 16.6601 20.9625 16.8212C20.8234 17.9066 20.2937 18.9041 19.4723 19.6271C18.6509 20.3501 17.5943 20.7491 16.5 20.7493C13.1185 20.7493 9.87548 19.406 7.48439 17.0149C5.0933 14.6238 3.75 11.3808 3.75 7.9993C3.75025 6.90505 4.1492 5.84837 4.87221 5.02701C5.59522 4.20564 6.59274 3.67586 7.67812 3.5368C7.83922 3.5161 8.00266 3.54894 8.14326 3.63026C8.28386 3.71157 8.39384 3.83685 8.45625 3.9868L10.3406 8.38367C10.3896 8.4965 10.4101 8.61965 10.4003 8.74226C10.3905 8.86488 10.3507 8.9832 10.2844 9.0868L8.71875 11.468C8.64905 11.5758 8.60814 11.6995 8.59993 11.8276C8.59172 11.9556 8.61649 12.0836 8.67187 12.1993Z" fill="#009379"/>
<path d="M8.67187 12.1993C9.44364 13.7931 10.7324 15.0785 12.3281 15.8462C12.4458 15.9019 12.576 15.926 12.7059 15.9162C12.8358 15.9063 12.9608 15.8628 13.0687 15.7899L15.4125 14.2243C15.516 14.1541 15.6357 14.1112 15.7603 14.0997C15.8849 14.0883 16.0104 14.1085 16.125 14.1587L20.5125 16.043C20.6625 16.1055 20.7877 16.2154 20.869 16.356C20.9504 16.4966 20.9832 16.6601 20.9625 16.8212C20.8234 17.9066 20.2937 18.9041 19.4723 19.6271C18.6509 20.3501 17.5943 20.7491 16.5 20.7493C13.1185 20.7493 9.87548 19.406 7.48439 17.0149C5.0933 14.6238 3.75 11.3808 3.75 7.9993C3.75025 6.90505 4.1492 5.84837 4.87221 5.02701C5.59522 4.20564 6.59274 3.67586 7.67812 3.5368C7.83922 3.5161 8.00266 3.54894 8.14326 3.63026C8.28386 3.71157 8.39384 3.83685 8.45625 3.9868L10.3406 8.38367C10.3896 8.4965 10.4101 8.61965 10.4003 8.74226C10.3905 8.86488 10.3507 8.9832 10.2844 9.0868L8.71875 11.468C8.64905 11.5758 8.60814 11.6995 8.59993 11.8276C8.59172 11.9556 8.61649 12.0836 8.67187 12.1993Z" stroke="#009379" stroke-width="1.5" stroke-linecap="round" stroke-linejoin="round"/>
<path d="M14.9438 4.24951C16.2159 4.59092 17.3759 5.26094 18.3072 6.1923C19.2386 7.12367 19.9086 8.28363 20.25 9.55576" stroke="#009379" stroke-width="1.5" stroke-linecap="round" stroke-linejoin="round"/>
<path d="M14.1656 7.14648C14.9307 7.34968 15.6285 7.75153 16.1883 8.3113C16.748 8.87107 17.1499 9.56887 17.3531 10.334" stroke="#009379" stroke-width="1.5" stroke-linecap="round" stroke-linejoin="round"/>
</svg>
