<svg width="32" height="33" viewBox="0 0 32 33" fill="none" xmlns="http://www.w3.org/2000/svg">
<path fill-rule="evenodd" clip-rule="evenodd" d="M0 16.4995C0 7.66296 7.16344 0.499512 16 0.499512C24.8366 0.499512 32 7.66296 32 16.4995C32 25.3361 24.8366 32.4995 16 32.4995C7.16344 32.4995 0 25.3361 0 16.4995Z" fill="#E5F4F2"/>
<path fill-rule="evenodd" clip-rule="evenodd" d="M24.5333 16.4878C24.5333 17.0649 24.4746 17.6412 24.3592 18.2029C24.2467 18.7514 24.08 19.2898 23.8616 19.8044C23.6483 20.31 23.3837 20.7972 23.0745 21.2516C22.77 21.7031 22.4191 22.1267 22.0336 22.5128C21.6474 22.8972 21.2224 23.2471 20.7711 23.553C20.3152 23.86 19.8273 24.1242 19.3214 24.3386C18.806 24.5558 18.2664 24.7222 17.7184 24.8345C17.1559 24.9502 16.5775 25.0093 15.9996 25.0093C15.4212 25.0093 14.8429 24.9502 14.2812 24.8345C13.7324 24.7222 13.1928 24.5558 12.6778 24.3386C12.1719 24.1242 11.6836 23.86 11.2277 23.553C10.7764 23.2472 10.3514 22.8972 9.96597 22.5128C9.58013 22.1267 9.22926 21.7031 8.92425 21.2516C8.61673 20.7972 8.3517 20.31 8.13754 19.8044C7.91917 19.2898 7.7521 18.7513 7.63917 18.2029C7.52501 17.6412 7.46666 17.0649 7.46666 16.4878C7.46666 15.9103 7.52498 15.3328 7.63921 14.7722C7.75213 14.2238 7.9192 13.6846 8.13757 13.1707C8.35173 12.6648 8.61677 12.1771 8.92428 11.7228C9.2293 11.2709 9.58017 10.8481 9.96601 10.4616C10.3514 10.0771 10.7765 9.72803 11.2277 9.42263C11.6836 9.11429 12.172 8.85011 12.6778 8.63539C13.1928 8.41773 13.7324 8.2509 14.2812 8.13941C14.8429 8.02457 15.4213 7.96631 15.9996 7.96631C16.5776 7.96631 17.1559 8.02457 17.7185 8.13941C18.2664 8.25094 18.806 8.41776 19.3215 8.63539C19.8273 8.85007 20.3153 9.11429 20.7711 9.42263C21.2224 9.72803 21.6474 10.0771 22.0337 10.4616C22.4191 10.8481 22.77 11.2709 23.0746 11.7228C23.3837 12.1771 23.6483 12.6648 23.8616 13.1707C24.08 13.6846 24.2467 14.2238 24.3592 14.7722C24.4746 15.3328 24.5333 15.9103 24.5333 16.4878ZM12.8902 9.90569C10.858 10.864 9.34129 12.7338 8.86834 14.9874C9.06046 14.9891 12.0973 15.0273 15.5962 14.099C14.3349 11.8613 12.9873 10.0351 12.8902 9.90569ZM16.2 15.2196C12.4477 16.3413 8.8471 16.2606 8.71794 16.2556C8.71583 16.3338 8.71209 16.4096 8.71209 16.4878C8.71209 18.3573 9.41838 20.0616 10.5793 21.3502C10.5768 21.3464 12.5711 17.8135 16.5038 16.5436C16.5987 16.512 16.6954 16.4836 16.7913 16.4562C16.6084 16.0426 16.4087 15.6282 16.2 15.2196ZM20.8123 11.0262C19.5293 9.89652 17.8447 9.21127 15.9996 9.21127C15.4075 9.21127 14.8328 9.28284 14.2824 9.41515C14.3916 9.56164 15.7604 11.3749 17.0067 13.66C19.7565 12.6307 20.7944 11.0528 20.8123 11.0262ZM17.288 17.662C17.2718 17.6674 17.2556 17.672 17.2397 17.6778C12.94 19.1746 11.5358 22.1911 11.5206 22.224C12.7578 23.1847 14.3095 23.7643 15.9996 23.7643C17.0088 23.7643 17.9701 23.5592 18.8447 23.1877C18.7368 22.5519 18.3135 20.3233 17.288 17.662ZM20.0719 22.5227C21.7082 21.4201 22.8703 19.6692 23.1945 17.6412C23.0445 17.5929 21.0057 16.9484 18.6534 17.3249C19.6093 19.948 19.9977 22.0842 20.0719 22.5227ZM17.5676 14.7444C17.7368 15.0914 17.9006 15.4446 18.0518 15.7996C18.1056 15.9269 18.1581 16.0518 18.2093 16.1766C20.7128 15.862 23.1791 16.3912 23.2846 16.4129C23.2679 14.6878 22.65 13.1046 21.6274 11.8651C21.6137 11.8846 20.4449 13.571 17.5676 14.7444Z" fill="#2D2D2D"/>
</svg>
