<svg width="32" height="33" viewBox="0 0 32 33" fill="none" xmlns="http://www.w3.org/2000/svg">
<path fill-rule="evenodd" clip-rule="evenodd" d="M0 16.4995C0 7.66296 7.16344 0.499512 16 0.499512C24.8366 0.499512 32 7.66296 32 16.4995C32 25.3361 24.8366 32.4995 16 32.4995C7.16344 32.4995 0 25.3361 0 16.4995Z" fill="#E5F4F2"/>
<path fill-rule="evenodd" clip-rule="evenodd" d="M16.0008 7.96631C13.6833 7.96631 13.3924 7.97644 12.4822 8.01786C11.5737 8.05947 10.9536 8.20329 10.411 8.41431C9.8498 8.63227 9.3737 8.92383 8.89939 9.39832C8.42471 9.87264 8.13316 10.3487 7.91449 10.9098C7.70293 11.4526 7.55893 12.0728 7.51804 12.9809C7.47733 13.8912 7.46666 14.1822 7.46666 16.4997C7.46666 18.8173 7.47697 19.1072 7.51822 20.0175C7.55999 20.9259 7.70382 21.546 7.91466 22.0886C8.1328 22.6498 8.42436 23.1259 8.89885 23.6002C9.37299 24.0749 9.84908 24.3672 10.41 24.5851C10.9529 24.7962 11.5732 24.94 12.4815 24.9816C13.3917 25.023 13.6824 25.0332 15.9997 25.0332C18.3174 25.0332 18.6074 25.023 19.5176 24.9816C20.4261 24.94 21.0469 24.7962 21.5898 24.5851C22.1509 24.3672 22.6263 24.0749 23.1004 23.6002C23.5751 23.1259 23.8667 22.6498 24.0853 22.0888C24.2951 21.546 24.4391 20.9257 24.4818 20.0176C24.5227 19.1074 24.5333 18.8173 24.5333 16.4997C24.5333 14.1822 24.5227 13.8913 24.4818 12.9811C24.4391 12.0727 24.2951 11.4526 24.0853 10.91C23.8667 10.3487 23.5751 9.87264 23.1004 9.39832C22.6258 8.92365 22.1511 8.63209 21.5893 8.41431C21.0453 8.20329 20.4248 8.05947 19.5164 8.01786C18.6062 7.97644 18.3164 7.96631 15.9981 7.96631H16.0008ZM15.2352 9.50408C15.4624 9.50372 15.716 9.50408 16.0008 9.50408C18.2792 9.50408 18.5492 9.51226 19.449 9.55315C20.281 9.59119 20.7325 9.73021 21.0333 9.84702C21.4316 10.0017 21.7155 10.1866 22.014 10.4852C22.3126 10.7839 22.4975 11.0684 22.6526 11.4666C22.7694 11.767 22.9086 12.2186 22.9464 13.0506C22.9873 13.9502 22.9962 14.2204 22.9962 16.4978C22.9962 18.7751 22.9873 19.0453 22.9464 19.9449C22.9084 20.7769 22.7694 21.2285 22.6526 21.5289C22.4979 21.9271 22.3126 22.2107 22.014 22.5092C21.7153 22.8079 21.4317 22.9928 21.0333 23.1474C20.7329 23.2648 20.281 23.4034 19.449 23.4415C18.5494 23.4824 18.2792 23.4912 16.0008 23.4912C13.7222 23.4912 13.4521 23.4824 12.5525 23.4415C11.7205 23.4031 11.269 23.264 10.968 23.1472C10.5698 22.9926 10.2853 22.8077 9.98665 22.509C9.68798 22.2103 9.50309 21.9266 9.34806 21.5282C9.23126 21.2278 9.09206 20.7762 9.0542 19.9442C9.01331 19.0446 9.00513 18.7744 9.00513 16.4956C9.00513 14.2168 9.01331 13.948 9.0542 13.0485C9.09224 12.2165 9.23126 11.7649 9.34806 11.4641C9.50273 11.0659 9.68798 10.7814 9.98665 10.4828C10.2853 10.1841 10.5698 9.99919 10.968 9.84417C11.2688 9.72684 11.7205 9.58817 12.5525 9.54995C13.3398 9.51439 13.6448 9.50372 15.2352 9.50195V9.50408ZM20.5558 10.921C19.9905 10.921 19.5318 11.3791 19.5318 11.9446C19.5318 12.51 19.9905 12.9687 20.5558 12.9687C21.1212 12.9687 21.5798 12.51 21.5798 11.9446C21.5798 11.3793 21.1212 10.921 20.5558 10.921ZM16.0008 12.1174C13.5807 12.1174 11.6185 14.0796 11.6185 16.4997C11.6185 18.9198 13.5807 20.8811 16.0008 20.8811C18.4209 20.8811 20.3824 18.9198 20.3824 16.4997C20.3824 14.0796 18.4209 12.1174 16.0008 12.1174ZM16.0008 13.6552C17.5716 13.6552 18.8452 14.9287 18.8452 16.4997C18.8452 18.0706 17.5716 19.3442 16.0008 19.3442C14.4297 19.3442 13.1563 18.0706 13.1563 16.4997C13.1563 14.9287 14.4297 13.6552 16.0008 13.6552Z" fill="#2D2D2D"/>
</svg>
