<svg width="32" height="33" viewBox="0 0 32 33" fill="none" xmlns="http://www.w3.org/2000/svg">
<path fill-rule="evenodd" clip-rule="evenodd" d="M0 16.4995C0 7.66296 7.16344 0.499512 16 0.499512C24.8366 0.499512 32 7.66296 32 16.4995C32 25.3361 24.8366 32.4995 16 32.4995C7.16344 32.4995 0 25.3361 0 16.4995Z" fill="#E5F4F2"/>
<path fill-rule="evenodd" clip-rule="evenodd" d="M15.5208 13.5046L15.5544 14.0582L14.9948 13.9905C12.9579 13.7306 11.1784 12.8493 9.66756 11.3692L8.92891 10.6347L8.73865 11.1771C8.33575 12.386 8.59316 13.6628 9.43253 14.5215C9.8802 14.996 9.77948 15.0638 9.00725 14.7814C8.73865 14.691 8.50363 14.6232 8.48124 14.6571C8.4029 14.7362 8.6715 15.7643 8.88414 16.1711C9.17513 16.736 9.76828 17.2897 10.4174 17.6173L10.9658 17.8772L10.3167 17.8885C9.68994 17.8885 9.66756 17.8998 9.73471 18.1371C9.95854 18.8715 10.8427 19.6511 11.8276 19.9901L12.5214 20.2273L11.9171 20.5889C11.0218 21.1086 9.96973 21.4024 8.91772 21.425C8.41409 21.4363 8 21.4815 8 21.5154C8 21.6284 9.36538 22.2611 10.16 22.5097C12.5438 23.2441 15.3753 22.9277 17.5017 21.6736C19.0126 20.781 20.5235 19.0071 21.2286 17.2897C21.6091 16.3745 21.9896 14.7023 21.9896 13.9001C21.9896 13.3803 22.0232 13.3125 22.6499 12.6911C23.0192 12.3295 23.3662 11.9341 23.4333 11.8211C23.5452 11.6064 23.534 11.6064 22.9633 11.7985C22.012 12.1375 21.8777 12.0923 22.3477 11.5838C22.6947 11.2223 23.1088 10.5669 23.1088 10.3749C23.1088 10.341 22.9409 10.3975 22.7506 10.4992C22.5492 10.6121 22.1015 10.7816 21.7658 10.8833L21.1614 11.0754L20.613 10.7025C20.3108 10.4992 19.8856 10.2732 19.6617 10.2054C19.0909 10.0472 18.218 10.0698 17.7032 10.2506C16.3042 10.759 15.4201 12.0697 15.5208 13.5046Z" fill="#2D2D2D"/>
</svg>
