<svg width="32" height="33" viewBox="0 0 32 33" fill="none" xmlns="http://www.w3.org/2000/svg">
<path fill-rule="evenodd" clip-rule="evenodd" d="M0 16.4995C0 7.66296 7.16344 0.499512 16 0.499512C24.8366 0.499512 32 7.66296 32 16.4995C32 25.3361 24.8366 32.4995 16 32.4995C7.16344 32.4995 0 25.3361 0 16.4995Z" fill="#E5F4F2"/>
<path fill-rule="evenodd" clip-rule="evenodd" d="M18.3722 12.9459H22.8917V11.6511H18.3722V12.9459ZM19.4429 15.7712C19.1549 16.0642 18.9733 16.4612 18.899 16.9621H22.4141C22.377 16.4276 22.1943 16.0237 21.8712 15.7455C21.5441 15.4693 21.1417 15.3317 20.6601 15.3317C20.1383 15.3317 19.7309 15.4782 19.4429 15.7712ZM22.4933 14.0329C23.0382 14.2725 23.4867 14.6526 23.84 15.1713C24.1621 15.6287 24.3688 16.1593 24.4631 16.7622C24.5183 17.1146 24.5404 17.6254 24.5313 18.2897H18.8488C18.8829 19.0608 19.1518 19.6023 19.6656 19.9122C19.9767 20.1052 20.351 20.2022 20.7905 20.2022C21.2531 20.2022 21.6314 20.0844 21.9214 19.8498C22.0809 19.7221 22.2214 19.5459 22.3418 19.3202H24.424C24.3688 19.7756 24.1159 20.2399 23.6684 20.7111C22.97 21.4585 21.9916 21.8327 20.7343 21.8327C19.6957 21.8327 18.7796 21.5179 17.9878 20.8863C17.1921 20.2557 16.7967 19.2281 16.7967 17.8066C16.7967 16.4731 17.155 15.4505 17.8704 14.7387C18.5879 14.0289 19.5161 13.6716 20.659 13.6716C21.3384 13.6716 21.9495 13.7923 22.4933 14.0329ZM9.56887 16.9899V19.7647H12.1297C12.5872 19.7647 12.9445 19.7033 13.1984 19.5815C13.6609 19.3538 13.8917 18.9222 13.8917 18.2827C13.8917 17.7402 13.669 17.369 13.2204 17.1661C12.9696 17.0532 12.6174 16.9938 12.1658 16.9899H9.56887ZM9.56887 12.9726V15.2683H12.1337C12.5903 15.2683 12.9625 15.1822 13.2495 15.0099C13.5345 14.8377 13.678 14.5328 13.678 14.0972C13.678 13.6112 13.4894 13.2914 13.1121 13.135C12.7849 13.0271 12.3695 12.9726 11.8648 12.9726H9.56887ZM15.2966 12.2748C15.6187 12.7173 15.7803 13.2459 15.7803 13.8626C15.7803 14.4972 15.6187 15.009 15.2926 15.3951C15.11 15.6109 14.842 15.8089 14.4878 15.9871C15.0257 16.1811 15.4311 16.487 15.707 16.9057C15.9799 17.3235 16.1174 17.8323 16.1174 18.4302C16.1174 19.047 15.9609 19.6004 15.6468 20.0894C15.4481 20.4131 15.1993 20.6863 14.9002 20.9081C14.5641 21.1625 14.1677 21.3357 13.7091 21.4308C13.2506 21.5248 12.7549 21.5703 12.219 21.5703H7.46666V11.166H12.5632C13.8496 11.1848 14.7597 11.5541 15.2966 12.2748Z" fill="#2D2D2D"/>
</svg>
